<?xml version="1.0" encoding="utf-8"?>
<svg width="800px" height="800px" viewBox="0 0 24 24" fill="none" xmlns="http://www.w3.org/2000/svg">
<path d="M12 6C10.6 4.6 8.4 4 6.5 4C5.4 4 4.3 4.2 3.5 4.6C3.2 4.75 3 5.06 3 5.4V17.4C3 17.96 3.56 18.34 4.07 18.13C4.83 17.82 5.68 17.65 6.5 17.65C8.4 17.65 10.6 18.25 12 19.65" stroke="#000000" stroke-width="1.5" stroke-linecap="round" stroke-linejoin="round"/>
<path d="M12 6C13.4 4.6 15.6 4 17.5 4C18.6 4 19.7 4.2 20.5 4.6C20.8 4.75 21 5.06 21 5.4V17.4C21 17.96 20.44 18.34 19.93 18.13C19.17 17.82 18.32 17.65 17.5 17.65C15.6 17.65 13.4 18.25 12 19.65" stroke="#000000" stroke-width="1.5" stroke-linecap="round" stroke-linejoin="round"/>
<path d="M12 6V19.65" stroke="#000000" stroke-width="1.5" stroke-linecap="round" stroke-linejoin="round"/>
<circle cx="18" cy="9.5" r="3.75" fill="#f0f2f0" stroke="#000000" stroke-width="1.5"/>
<path d="M16.4 9.6L17.4 10.6L19.6 8.4" stroke="#000000" stroke-width="1.5" stroke-linecap="round" stroke-linejoin="round"/>
</svg>
